<svg width="29" height="21" viewBox="0 0 29 21" fill="none" xmlns="http://www.w3.org/2000/svg">
<path d="M16 16.2386L8.38502 16.2386C8.3298 16.2386 8.28502 16.2834 8.28502 16.3386V19.532C8.28502 19.6175 8.18461 19.6636 8.11978 19.6078L1.08407 13.5514C1.03912 13.5127 1.03754 13.4436 1.08068 13.4029L7.67677 7.17744C7.74055 7.11724 7.84541 7.16246 7.84541 7.25016V10.2431C7.84541 10.2984 7.89018 10.3431 7.94541 10.3431H20.4314C20.4866 10.3431 20.5314 10.3879 20.5314 10.4431V13.2674C20.5314 13.3518 20.6297 13.3983 20.6949 13.3446L27.4118 7.8225C27.4585 7.78411 27.4607 7.71337 27.4165 7.67213L20.6996 1.4069C20.6357 1.34727 20.5314 1.3926 20.5314 1.48002V4.34764C20.5314 4.40287 20.4866 4.44764 20.4314 4.44764L13 4.44764" stroke="black" stroke-width="1.5" stroke-linecap="round"/>
</svg>
