<svg width="27" height="24" viewBox="0 0 27 24" fill="none" xmlns="http://www.w3.org/2000/svg">
<path d="M26.2494 13.4323C26.2441 13.1796 26.0989 12.8824 25.8035 12.7504L20.075 10.1075V3.84249C20.0741 3.58096 19.9262 3.27549 19.6233 3.14234L13.4396 0.345032C13.2415 0.255433 13.0148 0.253948 12.8155 0.340831L6.64049 3.03533C6.39603 3.14511 6.17697 3.40115 6.17938 3.73962V10.1016L0.45659 12.6429C0.216224 12.7524 -0.00329248 13.0092 3.74023e-05 13.3453V20.2049C3.74023e-05 20.5086 0.178776 20.7836 0.456232 20.907L6.63127 23.653C6.75642 23.6707 6.80284 23.8017 7.2554 23.6532L13.1248 21.0467L18.9858 23.653C19.1109 23.6707 19.1573 23.8017 19.6099 23.6532L25.7934 20.9072C26.0711 20.7839 26.25 20.5087 26.25 20.2049V13.4481C26.25 13.4428 26.2495 13.4377 26.2494 13.4323ZM6.94971 11.4411L11.3064 13.3785L6.94361 15.5133L2.58526 13.3793L6.94971 11.4411ZM12.3544 7.24261V12.1622L7.71625 10.0982V4.97153L12.3544 7.24261ZM18.538 10.0997L15.9462 11.2507L13.8913 12.1632V7.25014L18.538 5.05528V10.0997ZM7.71195 16.8484L12.3544 14.5767V19.7073L7.71195 21.7688V16.8484ZM13.8921 14.5775L18.5295 16.8482V21.7682L13.8953 19.7074L13.8921 14.5775ZM19.304 15.5162L14.9397 13.3793L19.3004 11.4428L23.6649 13.4563L19.304 15.5162ZM13.1173 1.886L17.4754 3.85755L13.1288 5.91055L8.77715 3.77973L13.1173 1.886ZM1.53691 14.5771L6.17508 16.8482V21.7682L1.53691 19.7056V14.5771ZM20.0663 21.7688V16.8557L24.7131 14.6609V19.7053L20.0663 21.7688Z" fill="black"/>
</svg>
