<svg width="28" height="27" viewBox="0 0 28 27" fill="none" xmlns="http://www.w3.org/2000/svg">
<path d="M26.5412 13.5C26.5412 20.5341 20.7753 26.25 13.6456 26.25C6.51595 26.25 0.75 20.5341 0.75 13.5C0.75 6.46594 6.51595 0.75 13.6456 0.75C20.7753 0.75 26.5412 6.46593 26.5412 13.5Z" fill="white" stroke="#D9D9D9" stroke-width="1.5"/>
<path d="M20.7945 12.06C19.9035 11.22 18.6731 10.7 17.3154 10.7H10.4845L10.9724 11.78H9.99658C9.65715 11.78 9.36016 11.66 9.1268 11.44C8.91466 11.24 8.76617 10.96 8.76617 10.64C8.76617 10.32 8.91466 10.04 9.1268 9.84C9.36016 9.62 9.65715 9.5 9.99658 9.5H22.2159V6H9.99658C8.63888 6 7.40847 6.52 6.51748 7.36C5.62649 8.2 5.05371 9.36 5.05371 10.64C5.05371 11.92 5.62649 13.08 6.51748 13.92C7.40847 14.76 8.63888 15.28 9.99658 15.28H15.5971L15.1516 14.2H17.3154C17.6548 14.2 17.9518 14.34 18.164 14.54C18.3973 14.74 18.5246 15.04 18.5246 15.34C18.5246 15.66 18.3973 15.94 18.164 16.16C17.9518 16.36 17.6548 16.5 17.3154 16.5H5.05371V20H17.3154C18.6731 20 19.9035 19.46 20.7945 18.62C21.6855 17.78 22.2371 16.62 22.2371 15.34C22.2371 14.06 21.6855 12.9 20.7945 12.06Z" fill="#D9D9D9"/>
</svg>
