<svg width="23" height="22" viewBox="0 0 23 22" fill="none" xmlns="http://www.w3.org/2000/svg">
<path fill-rule="evenodd" clip-rule="evenodd" d="M13.9975 0.894706C14.2095 0.894706 14.4128 0.97867 14.5628 1.12813C14.7127 1.27758 14.7969 1.48029 14.7969 1.69165C14.7969 1.90302 14.7127 2.10572 14.5628 2.25518C14.4128 2.40464 14.2095 2.4886 13.9975 2.4886H6.25019C3.57681 2.4886 1.84785 4.32052 1.84785 7.15765V15.7456C1.84785 18.6199 3.53524 20.405 6.25019 20.405H15.4216C18.095 20.405 19.8228 18.5774 19.8228 15.7456V8.267C19.8228 8.05564 19.9071 7.85293 20.057 7.70347C20.2069 7.55402 20.4103 7.47005 20.6223 7.47005C20.8343 7.47005 21.0377 7.55402 21.1876 7.70347C21.3375 7.85293 21.4218 8.05564 21.4218 8.267V15.7477C21.4218 19.488 19.0106 22 15.4205 22H6.25126C2.66223 22 0.25 19.487 0.25 15.7466V7.15765C0.25 3.412 2.66223 0.894706 6.25126 0.894706H13.9985H13.9975ZM16.2519 8.15224C16.4196 8.28161 16.5288 8.47206 16.5556 8.68168C16.5823 8.89131 16.5245 9.10296 16.3948 9.27009L13.2716 13.2867C13.2073 13.3699 13.127 13.4394 13.0356 13.4914C12.9441 13.5434 12.8431 13.5768 12.7386 13.5895C12.6338 13.6032 12.5274 13.5957 12.4256 13.5676C12.3238 13.5395 12.2287 13.4913 12.1459 13.4259L9.1421 11.0723L6.44526 14.5671C6.31606 14.7348 6.12534 14.8445 5.91504 14.872C5.70474 14.8995 5.4921 14.8426 5.32389 14.7138C5.15568 14.585 5.04568 14.3949 5.0181 14.1852C4.99051 13.9756 5.04759 13.7636 5.17679 13.5959L8.36716 9.46242C8.43163 9.37893 8.51206 9.30902 8.60381 9.25672C8.69556 9.20442 8.79681 9.17077 8.90168 9.15773C9.00656 9.14468 9.11299 9.1525 9.21482 9.18073C9.31665 9.20895 9.41185 9.25702 9.49493 9.32216L12.5009 11.6758L15.1306 8.29357C15.1945 8.21036 15.2743 8.14062 15.3654 8.08836C15.4566 8.03611 15.5572 8.00239 15.6615 7.98915C15.7657 7.9759 15.8716 7.98341 15.973 8.01122C16.0743 8.03903 16.1691 8.0866 16.2519 8.15118V8.15224ZM19.4018 0C20.157 0.000562875 20.8811 0.299879 21.4152 0.832221C21.9492 1.36456 22.2494 2.08641 22.25 2.83926C22.2494 3.5922 21.9492 4.31416 21.4152 4.84667C20.8812 5.37918 20.1571 5.67873 19.4018 5.67958C18.6466 5.67845 17.9226 5.37881 17.3887 4.84636C16.8548 4.31391 16.5544 3.59211 16.5536 2.83926C16.5544 2.0865 16.8548 1.36481 17.3888 0.832531C17.9227 0.30025 18.6467 0.000843743 19.4018 0V0ZM19.4018 1.59389C19.0766 1.60336 18.768 1.73878 18.5414 1.97139C18.3147 2.20401 18.188 2.51552 18.188 2.83979C18.188 3.16406 18.3147 3.47557 18.5414 3.70818C18.768 3.9408 19.0766 4.07622 19.4018 4.08568C19.727 4.07622 20.0356 3.9408 20.2622 3.70818C20.4889 3.47557 20.6156 3.16406 20.6156 2.83979C20.6156 2.51552 20.4889 2.20401 20.2622 1.97139C20.0356 1.73878 19.727 1.60336 19.4018 1.59389Z" fill="black"/>
</svg>
