<svg width="22" height="22" viewBox="0 0 22 22" fill="none" xmlns="http://www.w3.org/2000/svg">
<path d="M11 21.75C5.07 21.75 0.25 16.93 0.25 11C0.25 8.64 1 6.4 2.42 4.52C2.67 4.19 3.14 4.13 3.47 4.38C3.8 4.63 3.87 5.1 3.62 5.43C2.40196 7.03096 1.74481 8.98837 1.75 11C1.75 16.1 5.9 20.25 11 20.25C16.1 20.25 20.25 16.1 20.25 11C20.25 5.9 16.1 1.75 11 1.75C10.59 1.75 10.25 1.41 10.25 1C10.25 0.59 10.59 0.25 11 0.25C16.93 0.25 21.75 5.07 21.75 11C21.75 16.93 16.93 21.75 11 21.75Z" fill="black"/>
<path d="M11 18.75C6.73 18.75 3.25 15.27 3.25 11C3.25 10.59 3.59 10.25 4 10.25C4.41 10.25 4.75 10.59 4.75 11C4.75 14.45 7.55 17.25 11 17.25C14.45 17.25 17.25 14.45 17.25 11C17.25 7.55 14.45 4.75 11 4.75C10.59 4.75 10.25 4.41 10.25 4C10.25 3.59 10.59 3.25 11 3.25C15.27 3.25 18.75 6.73 18.75 11C18.75 15.27 15.27 18.75 11 18.75Z" fill="black"/>
<path d="M11 15.75C10.59 15.75 10.25 15.41 10.25 15C10.25 14.59 10.59 14.25 11 14.25C12.79 14.25 14.25 12.79 14.25 11C14.25 9.21 12.79 7.75 11 7.75C10.59 7.75 10.25 7.41 10.25 7C10.25 6.59 10.59 6.25 11 6.25C13.62 6.25 15.75 8.38 15.75 11C15.75 13.62 13.62 15.75 11 15.75Z" fill="black"/>
</svg>
